<?xml version="1.0" encoding="UTF-8" standalone="no"?>
<!-- Created with Inkscape (http://www.inkscape.org/) -->

<svg
   width="210mm"
   height="297mm"
   viewBox="0 0 210 297"
   version="1.1"
   id="svg1"
   inkscape:version="1.4.3 (0d15f75, 2025-12-25)"
   sodipodi:docname="spring_man.svg"
   xmlns:inkscape="http://www.inkscape.org/namespaces/inkscape"
   xmlns:sodipodi="http://sodipodi.sourceforge.net/DTD/sodipodi-0.dtd"
   xmlns="http://www.w3.org/2000/svg"
   xmlns:svg="http://www.w3.org/2000/svg">
  <sodipodi:namedview
     id="namedview1"
     pagecolor="#ffffff"
     bordercolor="#000000"
     borderopacity="0.25"
     inkscape:showpageshadow="2"
     inkscape:pageopacity="0.0"
     inkscape:pagecheckerboard="0"
     inkscape:deskcolor="#d1d1d1"
     inkscape:document-units="mm"
     inkscape:zoom="1.0771772"
     inkscape:cx="218.62698"
     inkscape:cy="404.29745"
     inkscape:window-width="1920"
     inkscape:window-height="1094"
     inkscape:window-x="-11"
     inkscape:window-y="-11"
     inkscape:window-maximized="1"
     inkscape:current-layer="layer1">
    <inkscape:page
       x="0"
       y="0"
       width="210"
       height="297"
       id="page2"
       margin="0"
       bleed="0" />
  </sodipodi:namedview>
  <defs
     id="defs1">
    <inkscape:path-effect
       effect="skeletal"
       id="path-effect121"
       is_visible="true"
       lpeversion="1"
       pattern="m 4.6894736,191.22631 c 0.9842106,-0.11579 1.9684209,-0.23158 2.721057,-0.69475 0.7526361,-0.46316 1.2736781,-1.27367 1.7657884,-2.9237 0.4921102,-1.65002 0.955258,-4.13944 0.897359,-6.59999 -0.0579,-2.46055 -0.6368378,-4.89209 -1.0710496,-5.52892 -0.4342117,-0.63683 -0.7236819,0.52105 -0.9263143,2.72108 -0.2026323,2.20003 -0.3184194,5.44207 0.028957,7.69998 0.3473767,2.25791 1.1578832,3.53156 1.9684129,4.80525"
       copytype="repeated_stretched"
       prop_scale="1.45"
       scale_y_rel="false"
       spacing="-2"
       normal_offset="0"
       tang_offset="-0.2"
       prop_units="false"
       vertical_pattern="false"
       hide_knot="false"
       fuse_tolerance="2.4" />
    <inkscape:path-effect
       effect="skeletal"
       id="path-effect120"
       is_visible="true"
       lpeversion="1"
       pattern="m 4.6894736,191.22631 c 0.9842106,-0.11579 1.9684209,-0.23158 2.721057,-0.69475 0.7526361,-0.46316 1.2736781,-1.27367 1.7657884,-2.9237 0.4921102,-1.65002 0.955258,-4.13944 0.897359,-6.59999 -0.0579,-2.46055 -0.6368378,-4.89209 -1.0710496,-5.52892 -0.4342117,-0.63683 -0.7236819,0.52105 -0.9263143,2.72108 -0.2026323,2.20003 -0.3184194,5.44207 0.028957,7.69998 0.3473767,2.25791 1.1578832,3.53156 1.9684129,4.80525"
       copytype="repeated_stretched"
       prop_scale="1.05"
       scale_y_rel="false"
       spacing="-2.9"
       normal_offset="-1.7"
       tang_offset="-6"
       prop_units="false"
       vertical_pattern="false"
       hide_knot="false"
       fuse_tolerance="2.3" />
    <inkscape:path-effect
       effect="bspline"
       id="path-effect119"
       is_visible="true"
       lpeversion="1.3"
       weight="33.333333"
       steps="2"
       helper_size="0"
       apply_no_weight="true"
       apply_with_weight="true"
       only_selected="false"
       uniform="false" />
    <inkscape:path-effect
       effect="bspline"
       id="path-effect118"
       is_visible="true"
       lpeversion="1.3"
       weight="33.333333"
       steps="2"
       helper_size="0"
       apply_no_weight="true"
       apply_with_weight="true"
       only_selected="false"
       uniform="false" />
    <inkscape:path-effect
       effect="bspline"
       id="path-effect116"
       is_visible="true"
       lpeversion="1.3"
       weight="33.333333"
       steps="2"
       helper_size="0"
       apply_no_weight="true"
       apply_with_weight="true"
       only_selected="false"
       uniform="false" />
    <inkscape:path-effect
       effect="skeletal"
       id="path-effect75"
       is_visible="true"
       lpeversion="1"
       pattern="m 4.6894736,191.22631 c 0.9842106,-0.11579 1.9684209,-0.23158 2.721057,-0.69475 0.7526361,-0.46316 1.2736781,-1.27367 1.7657884,-2.9237 0.4921102,-1.65002 0.955258,-4.13944 0.897359,-6.59999 -0.0579,-2.46055 -0.6368378,-4.89209 -1.0710496,-5.52892 -0.4342117,-0.63683 -0.7236819,0.52105 -0.9263143,2.72108 -0.2026323,2.20003 -0.3184194,5.44207 0.028957,7.69998 0.3473767,2.25791 1.1578832,3.53156 1.9684129,4.80525"
       copytype="repeated_stretched"
       prop_scale="1.45"
       scale_y_rel="false"
       spacing="-2.8"
       normal_offset="0.4"
       tang_offset="-0.9"
       prop_units="false"
       vertical_pattern="false"
       hide_knot="false"
       fuse_tolerance="2.3" />
    <inkscape:path-effect
       effect="bspline"
       id="path-effect74"
       is_visible="true"
       lpeversion="1.3"
       weight="33.333333"
       steps="2"
       helper_size="0"
       apply_no_weight="true"
       apply_with_weight="true"
       only_selected="false"
       uniform="false" />
    <inkscape:path-effect
       effect="bspline"
       id="path-effect52"
       is_visible="true"
       lpeversion="1.3"
       weight="33.333333"
       steps="2"
       helper_size="0"
       apply_no_weight="true"
       apply_with_weight="true"
       only_selected="false"
       uniform="false" />
    <inkscape:path-effect
       effect="bspline"
       id="path-effect89"
       is_visible="true"
       lpeversion="1.3"
       weight="33.333333"
       steps="2"
       helper_size="0"
       apply_no_weight="true"
       apply_with_weight="true"
       only_selected="false"
       uniform="false" />
    <inkscape:path-effect
       effect="spiro"
       id="path-effect88"
       is_visible="true"
       lpeversion="1" />
    <inkscape:path-effect
       effect="bspline"
       id="path-effect87"
       is_visible="true"
       lpeversion="1.3"
       weight="33.333333"
       steps="2"
       helper_size="0"
       apply_no_weight="true"
       apply_with_weight="true"
       only_selected="false"
       uniform="false" />
    <inkscape:path-effect
       effect="bspline"
       id="path-effect86"
       is_visible="true"
       lpeversion="1.3"
       weight="33.333333"
       steps="2"
       helper_size="0"
       apply_no_weight="true"
       apply_with_weight="true"
       only_selected="false"
       uniform="false" />
  </defs>
  <g
     inkscape:label="Layer 1"
     inkscape:groupmode="layer"
     id="layer1">
    <g
       id="g53"
       transform="matrix(0.59333785,0,0,0.65662906,36.261695,-0.77427236)">
      <g
         id="g52"
         transform="translate(-0.49125313)">
        <g
           id="g88"
           transform="matrix(0.46306208,0,0,0.51261466,48.100089,2.8725434)">
          <path
             style="fill:none;fill-opacity:0.790385;fill-rule:nonzero;stroke:#000000;stroke-width:1.465;stroke-dasharray:none"
             d="m 41.756515,27.264548 c 2.783768,4.175651 5.567536,8.351303 11.217032,11.339778 5.649496,2.988474 14.16438,4.7897 21.123853,4.707805 6.959473,-0.0819 12.363151,-2.046869 20.05955,-5.813198 7.6964,-3.766329 17.68501,-9.333752 23.49819,-14.246326 5.81318,-4.912574 7.45066,-9.170017 -0.4505,-8.43308 -7.90117,0.736938 -25.340305,6.468109 -37.539827,12.977285 -12.199522,6.509176 -19.158802,13.795952 -24.480749,20.796377 -5.321946,7.000425 -9.00627,13.714082 -11.790056,24.685555 -2.783787,10.971473 -4.666886,26.200013 -1.71929,40.241796 2.947596,14.04178 10.725615,26.89598 18.503789,39.75043 21.042008,-12.93633 42.084023,-25.87266 54.815703,-38.891 12.73169,-13.01834 17.15288,-26.118159 16.375,-35.943286 -0.77787,-9.825126 -6.75467,-16.37504 -12.03569,-11.667037 -5.28101,4.708002 -9.86595,20.673411 -13.01818,35.574893 -3.15222,14.90148 -4.87157,28.73817 -4.78968,38.19484 0.0819,9.45667 1.965,14.53286 4.62599,17.93071 2.66099,3.39785 6.09969,5.1172 14.57394,8.14664 8.47425,3.02944 21.98345,7.36875 35.49291,11.70815"
             id="path86"
             sodipodi:nodetypes="ccccccccccccccccccc"
             inkscape:original-d="m 41.756515,27.264548 c 2.783768,4.175651 5.567537,8.351302 8.351303,12.526954 8.515225,1.801299 17.030109,3.602524 25.545163,5.403786 5.403892,-1.965052 10.80757,-3.930025 16.211354,-5.895038 9.989015,-5.567645 19.977625,-11.135071 29.966445,-16.702606 1.63754,-4.257612 3.27502,-8.515054 4.91253,-12.7725815 C 109.30347,15.556464 91.864335,21.287635 74.424849,27.018922 67.465291,34.305988 60.506011,41.592764 53.546591,48.879685 c -3.684473,6.713929 -7.368796,13.427586 -11.053196,20.14138 -1.883174,15.229152 -3.766275,30.457692 -5.64941,45.686545 7.77833,12.85471 23.334522,38.56336 23.334522,38.56336 0,0 42.084023,-25.87266 63.126023,-38.80899 4.42137,-13.10035 8.84256,-26.200169 13.26384,-39.300251 -5.97703,-6.550173 -11.95383,-13.100084 -17.93074,-19.650125 -4.58512,15.966046 -9.17006,31.931454 -13.75509,47.897176 -1.71942,13.83724 -3.43877,27.67393 -5.158157,41.51089 1.883177,5.07638 3.766277,10.15257 5.649417,15.22885 3.43884,1.71942 6.87754,3.43877 10.31631,5.15816 13.50973,4.33949 27.01893,8.6788 40.52839,13.0182"
             inkscape:path-effect="#path-effect86" />
          <path
             style="fill:none;fill-opacity:0.790385;fill-rule:nonzero;stroke:#000000;stroke-width:1.465;stroke-dasharray:none"
             d="m 45.68654,69.512317 c 3.520648,-2.128763 7.041224,-4.257483 11.749162,-6.304412 4.707938,-2.04693 10.602739,-4.011864 14.696597,-4.748759 4.093857,-0.736895 6.386326,-0.245652 8.556028,0.491228 2.169702,0.73688 4.216548,1.719367 4.134671,3.479727 -0.08188,1.760359 -2.292472,4.29845 -12.69085,9.702317 -10.398377,5.403866 -28.983748,13.673128 -33.93713,14.942141 -4.953382,1.269013 3.725249,-4.462159 13.836991,-7.450618 10.111741,-2.988459 21.655959,-3.23408 28.574464,-2.29249 6.918504,0.941591 9.210973,3.070312 9.865968,5.117219 0.654994,2.046908 -0.327493,4.011881 -8.474259,8.269474 -8.146766,4.257592 -23.457184,10.807506 -32.095071,13.222816 -8.637887,2.41531 -10.602859,0.69596 -10.234393,-1.06439 0.368466,-1.76034 3.070303,-3.561563 8.43323,-3.479669 5.362927,0.0819 13.386567,2.046869 16.907205,5.280999 3.520637,3.23413 2.538151,7.73719 0.736863,11.33974 -1.801288,3.60255 -4.421253,6.30439 -6.01783,7.36876 -1.596576,1.06438 -2.169695,0.49126 -1.842181,-0.40938 0.327513,-0.90064 1.555624,-2.12875 3.152215,-1.96498 1.59659,0.16376 3.561567,1.71937 3.1931,3.88909 -0.368467,2.16973 -3.070309,4.95345 -4.134684,5.73125 -1.064376,0.77781 -0.491257,-0.4503 1.023464,-0.40935 1.514721,0.041 3.97096,1.35095 3.602479,3.2341 -0.368481,1.88315 -3.561565,4.33937 -6.75471,6.79564 2.37439,-0.98251 4.74878,-1.96501 4.912511,-1.30999 0.163731,0.65503 -1.883117,2.9475 -3.930005,5.24001 3.029394,-1.55563 6.05879,-3.11127 6.263454,-2.70187 0.204663,0.4094 -2.415305,2.78375 -5.035322,5.15814 1.883138,-1.06438 3.766272,-2.12876 3.88907,-1.30998 0.122798,0.81878 -1.51468,3.52062 -3.152189,6.22251"
             id="path87"
             sodipodi:nodetypes="cccccccccccccccccccccccccccccc"
             inkscape:original-d="m 45.68654,69.512317 c 3.520648,-2.128763 7.041224,-4.257483 10.561943,-6.386289 5.895157,-1.965053 11.789958,-3.929987 17.685113,-5.895039 2.29256,0.491263 4.585029,0.982506 6.877544,1.473758 2.046889,0.982507 4.093735,1.964994 6.140664,2.947521 -2.210683,2.538192 -4.421278,5.076283 -6.631917,7.614423 C 61.733771,77.536285 43.1484,85.805546 24.562656,94.074974 33.241636,88.343572 41.920268,82.612401 50.599072,76.881113 62.14375,76.635482 73.687968,76.389861 85.232416,76.144235 c 2.292562,2.128806 4.585031,4.257527 6.877545,6.386291 -0.982525,1.965052 -1.965013,3.930025 -2.947519,5.895038 -15.311027,6.55017 -30.621443,13.100086 -45.932166,19.650126 -1.965053,-1.71942 -3.930026,-3.43877 -5.895039,-5.15816 2.701946,-1.8013 5.403784,-3.602523 8.105677,-5.403785 8.023961,1.965052 16.047601,3.930025 24.071403,5.895035 -0.982525,4.50325 -1.965013,9.00631 -2.947519,13.50946 -2.620069,2.70195 -5.240034,5.40379 -7.860049,8.10568 -0.57314,-0.57314 -1.146257,-1.14626 -1.719387,-1.71939 1.228159,-1.22815 2.456268,-2.45626 3.6844,-3.68439 1.96505,1.55566 3.930023,3.11127 5.895036,4.6669 -2.701947,2.78382 -5.403784,5.56754 -8.105675,8.3513 0.573138,-1.22815 1.146257,-2.45626 1.719384,-3.68439 2.456315,1.31003 4.912556,2.62002 7.368797,3.93002 -3.193209,2.45631 -9.579435,7.3688 -9.579435,7.3688 0,0 4.748781,-1.96501 7.12317,-2.94752 -2.046927,2.29256 -6.140664,6.87754 -6.140664,6.87754 0,0 6.058789,-3.11127 9.088183,-4.6669 -2.62007,2.37443 -7.860051,7.12317 -7.860051,7.12317 0,0 3.766275,-2.12876 5.649413,-3.19315 -1.637544,2.70195 -3.275021,5.40379 -4.912532,8.10568"
             inkscape:path-effect="#path-effect87" />
        </g>
        <path
           style="fill:none;fill-opacity:1;fill-rule:nonzero;stroke:#000000;stroke-width:0.820289;stroke-dasharray:none"
           d="m 152.28847,80.319887 c 1.22125,0.743099 2.66038,1.123116 4.08928,1.079816 1.42891,-0.0433 2.84239,-0.509762 4.0164,-1.325445 0.99061,-0.688262 1.79617,-1.60397 2.66114,-2.444711 0.86497,-0.840741 1.83223,-1.63218 2.98827,-1.976566 1.36798,-0.407524 2.90762,-0.122316 4.08524,0.684304 1.17763,0.80662 1.98897,2.104639 2.27804,3.502452 0.28906,1.397813 0.07,2.882278 -0.53617,4.174545 -0.6062,1.292266 -1.58764,2.393915 -2.75481,3.215587 -2.33435,1.643344 -5.31626,2.138233 -8.16705,1.987442 -2.8508,-0.150791 -5.63126,-0.894484 -8.41471,-1.528628 -1.14303,-0.260413 -2.29426,-0.504076 -3.396,-0.904698 -1.10175,-0.400621 -2.16165,-0.967931 -2.9903,-1.797195 -0.7017,-0.702224 -1.22216,-1.582209 -1.5104,-2.532166 -0.28825,-0.949958 -0.34481,-1.967985 -0.17477,-2.94604 0.34008,-1.95611 1.60698,-3.713372 3.31373,-4.727778 1.70675,-1.014407 3.81808,-1.291862 5.75062,-0.836515 1.93253,0.455346 3.67468,1.621895 4.90215,3.182451 1.67706,2.132146 2.37162,4.903072 2.45627,7.614422 0.0588,1.882676 -0.16346,3.801185 -0.90765,5.531532 -0.7442,1.730346 -2.04722,3.262512 -3.75926,4.047904 -1.07115,0.491385 -2.27037,0.67871 -3.44683,0.609582 -1.17645,-0.06913 -2.33084,-0.389378 -3.40687,-0.869967 -2.15207,-0.96118 -3.96556,-2.536377 -5.67325,-4.160893 -2.28198,-2.170833 -4.51205,-4.593696 -5.40378,-7.614422 -0.8752,-2.964736 -0.30194,-6.312228 1.47375,-8.842558 0.87198,-1.242567 2.03445,-2.303738 3.42101,-2.921622 1.38656,-0.617884 3.0043,-0.767358 4.43904,-0.271523 0.84193,0.290964 1.60253,0.793089 2.24803,1.406955 0.6455,0.613866 1.17925,1.338016 1.63338,2.104349 0.90826,1.532666 1.50067,3.227996 2.25926,4.839999 1.06064,2.253871 2.44732,4.346762 3.43877,6.631916 1.36987,3.157373 1.94659,6.766738 0.98251,10.07069 -0.44882,1.53813 -1.23485,2.994634 -2.37824,4.117109 -1.14339,1.122475 -2.65664,1.894095 -4.25368,2.023555 -1.85577,0.15044 -3.70341,-0.56463 -5.21449,-1.65236 -1.51108,-1.087736 -2.72805,-2.529383 -3.87369,-3.99705 -1.48222,-1.898868 -2.87369,-3.868317 -4.17565,-5.895038 -2.78557,-4.336226 -5.18125,-8.989713 -6.38629,-14.000715 -0.23819,-0.990484 -0.43009,-2.00218 -0.40133,-3.020496 0.0288,-1.018315 0.2919,-2.051754 0.89258,-2.87454 0.44342,-0.607376 1.05969,-1.082033 1.74798,-1.384974 0.6883,-0.302941 1.44665,-0.436563 2.19846,-0.41919 1.50363,0.03475 2.94839,0.666366 4.15923,1.558536 1.75419,1.292519 3.06018,3.111958 4.06973,5.042918 1.00954,1.93096 1.74685,3.989632 2.56219,6.010278 1.16667,2.891327 2.4973,5.71393 3.6844,8.596929 0.93782,2.2776 1.78539,4.591282 2.70189,6.877544 0.48898,1.219792 0.99987,2.438924 1.28984,3.720688 0.28997,1.28176 0.34935,2.64553 -0.0617,3.89374 -0.28105,0.85344 -0.77783,1.63227 -1.41828,2.26249 -0.64045,0.63021 -1.42259,1.11237 -2.26612,1.4219 -1.49839,0.54984 -3.16306,0.548 -4.71734,0.18506 -1.55427,-0.36294 -3.00907,-1.07193 -4.37085,-1.90444 -2.33873,-1.42975 -4.44916,-3.24679 -6.14066,-5.40379 -1.75246,-2.234735 -3.03475,-4.799119 -4.66691,-7.123167 -3.17303,-4.51811 -7.63231,-8.080054 -10.40244,-12.855811 -1.38506,-2.387879 -2.32313,-5.097258 -2.27142,-7.857274 0.0259,-1.380008 0.30143,-2.760317 0.8594,-4.02276 0.55797,-1.262442 1.40197,-2.404465 2.48066,-3.265583 1.35538,-1.082002 3.06256,-1.698405 4.79364,-1.803908 1.73109,-0.105503 3.48058,0.290701 5.03142,1.067028 2.42439,1.213614 4.3179,3.307896 5.72724,5.623983 1.40935,2.316086 2.37895,4.867129 3.36094,7.394226 3.48184,8.960347 7.21833,17.823609 11.29882,26.527666 0.75479,1.61003 1.53251,3.25301 1.72355,5.02088 0.0955,0.88394 0.0387,1.79163 -0.23819,2.6365 -0.2769,0.84486 -0.7814,1.62463 -1.48536,2.16768 -0.90618,0.69905 -2.08912,0.9683 -3.23322,0.93875 -1.14409,-0.0295 -2.26251,-0.33609 -3.35059,-0.69091 -1.08809,-0.35481 -2.16324,-0.76101 -3.28231,-1.00084 -1.11906,-0.23983 -2.29988,-0.30726 -3.39771,0.0161 -0.81813,0.241 -1.57158,0.69797 -2.1634,1.3121 -0.59182,0.61414 -1.02061,1.38399 -1.23117,2.21047 -0.21056,0.82648 -0.20241,1.70765 0.0234,2.53009 0.22582,0.82245 0.66877,1.58423 1.27185,2.18731 0.60308,0.60308 1.36486,1.04603 2.18731,1.27185 0.82244,0.22582 1.70361,0.23397 2.53009,0.0234 0.82648,-0.21056 1.59633,-0.63935 2.21047,-1.23117 0.61413,-0.59182 1.0711,-1.34527 1.3121,-2.1634"
           id="path88"
           transform="matrix(-0.33086115,-0.67549623,0.63750723,-0.26734434,102.60346,213.06916)"
           inkscape:original-d="m 152.28847,80.319887 c 2.62002,0.08188 5.48566,-0.327504 8.10568,-0.245629 2.62001,0.08188 3.68439,-2.783766 5.64941,-4.421277 1.96501,-1.637509 -9.08819,8.023802 -13.50946,12.035702 -4.42128,4.011901 -4.17565,-1.883137 -6.3863,-2.701893 -2.21063,-0.818755 8.18756,-5.158158 12.28133,-7.860048 4.09378,-2.701893 1.47376,5.158158 2.45627,7.614422 0.98251,2.456265 -3.02939,6.22254 -4.66691,9.579436 -1.63751,3.356895 -8.26942,-2.865644 -12.52695,-4.421278 -4.25753,-1.555636 -3.60252,-5.076282 -5.40378,-7.614422 -1.80127,-2.538143 1.14625,-5.895039 1.47375,-8.842558 0.32751,-2.947519 5.07629,-2.046888 7.86005,-3.193145 2.78377,-1.146257 4.09378,5.485659 6.14067,8.351303 2.04689,2.865644 2.29251,4.421277 3.43877,6.631916 1.14626,2.210642 0.65501,6.713794 0.98251,10.07069 0.3275,3.356896 -4.42128,4.093776 -6.63192,6.140664 -2.21064,2.04689 -6.05879,-3.84815 -9.08818,-5.64941 -3.0294,-1.801262 -2.78377,-3.930025 -4.17565,-5.895038 -1.39189,-1.965013 -4.17566,-9.333809 -6.38629,-14.000715 -2.21065,-4.666903 0.16375,-3.848148 0.49125,-5.895036 0.3275,-2.046888 5.64941,-0.08187 8.10567,-0.245628 2.45627,-0.163751 4.25753,7.368799 6.63192,11.053196 2.37439,3.684399 2.45627,5.731287 3.6844,8.596929 1.22813,2.865644 1.80126,4.58503 2.70189,6.877544 0.90063,2.292514 0.65501,5.158158 1.22814,7.614428 0.57312,2.45626 -2.29252,2.37439 -3.6844,3.68439 -1.39189,1.31001 -6.14067,-1.14625 -9.08819,-1.71938 -2.94752,-0.57313 -4.0119,-3.60252 -6.14066,-5.40379 -2.12877,-1.801258 -3.11127,-4.748775 -4.66691,-7.123167 -1.55563,-2.374389 -6.22253,-18.831369 -9.3338,-28.001428 -3.11127,-9.170058 6.55004,-0.491252 9.82506,-0.73688 3.27502,-0.245626 6.05879,8.678807 9.08818,13.018209 3.02939,4.339402 7.61443,17.930738 11.29882,26.527666 3.6844,8.59693 -0.0819,6.38629 0,9.82506 0.0819,3.43878 -8.84255,-0.57312 -13.26383,-0.73687 -4.42128,-0.16376 4.09377,4.17565 6.14066,6.14066"
           inkscape:path-effect="#path-effect88" />
        <path
           style="fill:none;fill-opacity:0.790385;fill-rule:nonzero;stroke:#000000;stroke-width:0.264999;stroke-dasharray:none"
           d="m 30.212067,102.91753 c 18.012616,-10.97132 36.02523,-21.94264 47.119404,-27.469238 11.094175,-5.526599 15.269744,-5.608473 18.913236,-4.625947 3.643491,0.982526 6.754703,3.029374 10.971343,5.076282 4.21664,2.046908 9.53834,4.093717 12.77248,11.012337 3.23415,6.918619 4.38036,18.708216 4.33942,31.849506 -0.0409,13.14129 -1.26904,27.63296 -3.23408,41.96132 -1.96504,14.32836 -4.66688,28.49254 -7.36877,42.657 0,0 5.89504,4.17566 5.89504,4.17566 -1.22813,2.29251 -2.45626,4.58502 -13.7553,8.43323 -11.29904,3.8482 -32.668124,9.25188 -54.037636,14.65566 0,0 29.966441,-49.61656 29.966441,-49.61656 1.064382,-6.79567 2.128763,-13.59134 -0.696008,-21.53336 -2.824771,-7.94201 -9.538429,-17.03001 -16.456982,-23.94854 -6.918553,-6.91853 -14.041583,-11.66722 -18.831325,-18.29922 -4.789742,-6.632 -7.245958,-15.14688 -9.702225,-23.661938"
           id="path89"
           sodipodi:nodetypes="cccccccccccccccc"
           transform="translate(58.459123,2.9475188)"
           inkscape:original-d="M 30.212067,102.91753 C 48.224683,91.94621 66.237296,80.974889 84.24991,70.003571 c 4.175736,-0.08188 8.351305,-0.16375 12.526957,-0.245628 3.11133,2.04693 6.222543,4.093776 9.333813,6.140664 5.32201,2.046928 10.64371,4.093736 15.96572,6.140666 1.14628,11.79031 2.29249,23.579907 3.43877,35.370217 -1.22815,14.49227 -2.45626,28.98394 -3.68439,43.47591 -2.70195,14.16475 -8.10568,42.49339 -8.10568,42.49339 l 5.89504,4.17566 c 0,0 -2.45627,4.58502 -3.6844,6.87754 -21.36994,5.40389 -64.108536,16.21135 -64.108536,16.21135 l 29.966441,-49.61656 c 0,0 2.128764,-13.59134 3.193145,-20.38701 C 78.272864,151.55141 71.559205,142.46341 64.845413,133.37522 57.7221,128.62635 50.599072,123.87766 43.475902,119.12888 41.019587,110.61366 38.56337,102.09878 36.107105,93.583722"
           inkscape:path-effect="#path-effect89" />
        <path
           style="fill:none;fill-opacity:0.790385;fill-rule:nonzero;stroke:#000000;stroke-width:0.264999;stroke-dasharray:none"
           d="m 155.64005,147.99857 c 0,0 25.65463,-19.68582 25.43178,-13.85894 -0.22286,5.82688 -30.52149,18.61345 -30.83363,23.25538 -0.31214,4.64193 30.46643,-22.04704 30.54901,-16.89664 0.0826,5.15036 -29.81798,16.46268 -30.06836,20.57277 -0.25038,4.11007 29.85557,-20.69405 29.72535,-15.66494 -0.13022,5.02911 -29.35815,14.4566 -29.88309,18.97725 -0.52494,4.52067 28.66805,-20.23669 28.32503,-15.32885 -0.34302,4.90785 -31.14982,12.30149 -29.36821,20.40474 1.78162,8.10326 26.94149,-24.90636 28.1807,-19.94739 1.23922,4.95896 -26.44071,16.68618 -26.81126,19.87723 -0.37054,3.19106 27.90613,-19.53682 27.74839,-16.22449 -0.15775,3.31232 -29.24135,17.35834 -28.42437,20.09204 0.81696,2.73372 28.02965,-20.6005 27.50471,-16.07984 -0.52494,4.52065 -26.40649,14.43756 -26.07688,17.46057 0.32961,3.02302 23.89049,-20.12414 24.85514,-14.75459 0.96465,5.36954 -25.61706,15.45447 -24.95113,17.53508 0.66593,2.08059 22.81978,-16.76504 23.42395,-14.1526 0.60417,2.61244 -27.44631,17.53072 -25.77814,20.7495 1.66815,3.21879 30.13347,-23.08733 26.22456,-14.82474 -3.9089,8.2626 -28.14646,17.69876 -26.75286,21.32813 1.3936,3.62935 27.60741,-22.82578 25.52442,-14.65671 -2.083,8.16905 -25.19146,15.69701 -24.83097,18.4541 0.36049,2.75709 26.98984,-17.50734 24.17916,-10.88704 -2.81067,6.62029 -24.12075,12.33792 -22.30154,16.20979 1.81919,3.87192 21.56715,-13.79312 18.66384,-6.37506 -2.90332,7.41807 -17.84353,7.12607 -16.78624,11.69783 1.05729,4.57178 11.01385,0.88965 11.01385,0.88965 l -6.96325,15.02756"
           id="path90" />
        <path
           style="fill:none;fill-opacity:0.790385;stroke:#000001;stroke-width:0.565;stroke-linecap:butt;stroke-linejoin:round;stroke-dasharray:13.56, 0.565;stroke-dashoffset:0;stroke-opacity:1;paint-order:stroke fill markers"
           d="m 145.64822,107.27794 c -22.02174,11.56474 -44.04348,23.12947 -55.914056,28.3387 -11.870579,5.20923 -13.589929,4.063 -14.940885,2.01608 -1.350957,-2.04692 -2.333443,-4.99438 -1.555601,-5.44467 0.777842,-0.4503 3.315934,1.59655 4.748758,4.13472 1.432824,2.53817 1.76032,5.56751 0.614037,7.24596 -1.146283,1.67845 -3.766247,2.00595 -6.14066,0.98248 -2.374413,-1.02347 -4.503133,-3.39781 -6.181594,-6.14067 -1.678461,-2.74287 -2.906567,-5.85407 -1.637458,-5.64935 1.26911,0.20473 5.035305,3.7253 7.082197,6.91848 2.046893,3.19317 2.374388,6.05875 1.801245,8.02378 -0.573143,1.96502 -2.046874,3.02938 -4.05285,2.98843 -2.005975,-0.041 -4.544066,-1.18718 -6.263461,-2.45627 -1.719395,-1.26908 -2.62001,-2.66094 -3.970973,-5.48568 -1.350963,-2.82475 -3.152187,-7.08219 -1.964951,-7.2459 1.187235,-0.16372 5.362806,3.76623 7.491569,7.40972 2.128764,3.6435 2.210639,7.00033 1.350927,9.33379 -0.859712,2.33347 -2.660936,3.64345 -4.585032,3.64344 -1.924096,-2e-5 -3.970943,-1.31 -6.181605,-4.05287 -2.210661,-2.74287 -4.585005,-6.91844 -5.690322,-10.64381 -1.105318,-3.72537 -0.941571,-7.00032 0.163769,-7.77812 1.105341,-0.7778 3.152189,0.94155 5.444728,3.39784 2.292539,2.4563 4.830628,5.64938 4.953419,9.82509 0.122791,4.1757 -2.169679,9.33376 -4.544093,12.15847 -2.374414,2.8247 -4.830631,3.31595 -7.941938,3.39782 -3.111308,0.0819 -6.877506,-0.24562 -9.743168,-2.16973 -2.865663,-1.92411 -4.830636,-5.44469 -5.649389,-10.2754 -0.818752,-4.83072 -0.491256,-10.97126 0.777837,-15.76102 1.269093,-4.78975 3.479687,-8.22845 5.813164,-8.06466 2.333477,0.16379 4.78969,3.92998 6.42721,9.45666 1.637521,5.52667 2.456259,12.81344 -0.655081,18.7904 -3.111339,5.97696 -10.152493,10.64377 -15.761008,12.77253 -5.608515,2.12876 -9.784083,1.71939 -12.731619,0.12279 -2.947535,-1.5966 -4.666886,-4.38031 -6.6319214,-7.20505 -1.9650351,-2.82473 -4.1756319,-5.69032 -3.8481003,-11.87201 0.3275316,-6.1817 3.1931175,-15.67907 7.2050707,-22.35196 4.011952,-6.6729 9.170005,-10.52097 13.304751,-11.54439 4.134745,-1.02343 7.245953,0.7778 9.047218,4.66694 1.801266,3.88915 2.29251,9.86594 2.046875,15.7201 -0.245636,5.85415 -1.228124,11.58533 -3.479738,16.86635 -2.251613,5.28102 -5.772186,10.11157 -8.883484,12.19939 -3.111298,2.08782 -5.813136,1.43283 -8.596933,-0.4094 -2.783797,-1.84223 -5.649379,-4.87156 -6.222491,-10.80763 -0.5731127,-5.93606 1.14624,-14.77844 4.298492,-21.2057 3.152253,-6.42727 7.737191,-10.43909 11.094109,-12.03566 3.356917,-1.59656 5.485639,-0.77782 6.836591,2.98852 1.350952,3.76634 1.924069,10.48 1.432801,16.08852 -0.491269,5.60851 -2.046875,10.11158 -3.930034,13.83694 -1.883159,3.72537 -4.093753,6.67283 -6.140661,7.90096 -2.046908,1.22813 -3.930006,0.73688 -5.976916,-0.57315 -2.046911,-1.31003 -4.257506,-3.43875 -4.584991,-8.22854 -0.327485,-4.7898 1.228118,-12.24032 3.684417,-17.39851 2.456298,-5.15818 5.81313,-8.02377 8.146594,-9.17002 2.333464,-1.14625 3.643448,-0.57313 4.462206,2.29257 0.818759,2.86569 1.146254,8.02374 -0.04097,13.5504 -1.187222,5.52665 -3.88906,11.42157 -6.345348,13.26375 -2.456287,1.84218 -4.666884,-0.36842 -5.32188,-4.21662 -0.654995,-3.8482 0.245618,-9.33375 1.883152,-13.38662 1.637534,-4.05286 4.011877,-6.67283 5.444705,-7.57345 1.432828,-0.90062 1.924071,-0.0819 2.005942,1.9241 0.08187,2.00598 -0.245624,5.19906 -1.350961,8.31036 -1.105338,3.1113 -2.988436,6.14063 -6.672891,6.05873 -3.684455,-0.0819 -9.1700037,-3.27499 -11.9128342,-9.94795 -2.7428306,-6.67295 -2.7428306,-16.82531 -1.2281029,-23.4982 1.5147277,-6.67289 4.5440611,-9.86597 8.0238101,-11.05316 3.479748,-1.187184 7.409695,-0.368445 9.251892,0.77783 1.842196,1.14627 1.596575,2.62 0.614051,3.35688 -0.982523,0.73688 -2.701875,0.73688 -4.339401,0.655 -1.637527,-0.0819 -3.193129,-0.24562 -4.421271,-0.655 -1.228142,-0.40939 -2.128753,-1.06438 -2.824702,-1.88315 -0.695949,-0.81877 -1.187189,-1.80125 -0.286536,-2.579074 0.900653,-0.777823 3.193122,-1.35094 5.567537,-1.432812 2.374414,-0.08187 4.830631,0.327499 6.550027,0.777819 1.719395,0.45032 2.701884,0.941567 3.193137,1.473757 0.491252,0.5322 0.491252,1.10532 -0.122827,1.63752 -0.61408,0.53219 -1.842187,1.02343 -3.520657,1.02343 -1.678469,-10e-6 -3.80719,-0.49125 -5.690345,-1.43283 -1.883156,-0.94159 -3.52063,-2.333441 -3.397798,-3.356892 0.122833,-1.023451 2.005932,-1.678442 4.789737,-1.473742 2.783804,0.204699 6.468129,1.26906 8.310328,2.169697 1.842198,0.900637 1.842198,1.637507 0.900611,1.842197 -0.941587,0.20468 -2.824687,-0.12282 -4.74878,-1.187217 -1.924094,-1.0644 -3.889069,-2.865627 -4.175618,-3.930011 -0.28655,-1.064385 1.105305,-1.39188 3.275036,-1.187184 2.169731,0.204696 5.117191,0.941561 6.713766,1.596571 1.596575,0.65501 1.842196,1.228126 0.368404,1.55563 -1.473791,0.327503 -4.666871,0.409377 -6.468137,-0.450335 -1.801266,-0.859712 -2.210635,-2.660937 -0.859657,-3.315936 1.350977,-0.654998 4.462184,-0.163755 6.509082,0.450318 2.046897,0.614073 3.029384,1.350938 2.169664,1.760317 -0.859719,0.409378 -3.561557,0.491252 -4.953442,-0.286582 -1.391885,-0.777834 -1.473759,-2.415311 3.1e-5,-2.783742 1.47379,-0.36843 4.503124,0.532182 4.994356,1.228129 0.491232,0.695947 -1.555614,1.18719 -2.660935,0.941554 -1.105322,-0.245637 -1.26907,-1.228122 -0.736866,-2.046884 0.532203,-0.818763 1.760311,-1.473754 2.783764,-1.514685 1.023452,-0.04093 1.842189,0.532184 1.964997,1.064381 0.122807,0.532196 -0.45031,1.023439 -1.105321,1.187189 -0.655012,0.163749 -1.391876,2e-6 0.327551,-1.310032 1.719427,-1.310033 5.894995,-3.76625 10.070647,-6.222517"
           id="path1"
           inkscape:original-d="m 145.64822,107.27794 c -22.02174,11.56474 -44.04348,23.12947 -66.065214,34.69421 -1.719421,-1.14628 -3.438773,-2.29251 -5.158157,-3.43877 -0.982528,-2.94758 -1.965013,-5.89504 -2.94752,-8.84256 2.538191,2.04693 5.076283,4.09378 7.614423,6.14067 0.327509,3.02945 0.655005,6.05879 0.982506,9.08818 -2.620068,0.32751 -5.240033,0.655 -7.860051,0.98251 -2.128805,-2.37444 -4.257527,-4.74878 -6.38629,-7.12317 -1.228156,-3.11134 -2.456265,-6.22254 -3.684397,-9.33381 3.766349,3.52072 7.532547,7.04129 11.298822,10.56194 0.327507,2.8657 0.655003,5.73128 0.982507,8.59693 -1.47379,1.0644 -2.94752,2.12876 -4.42128,3.19314 -2.538191,-1.14628 -5.076283,-2.29251 -7.614423,-3.43877 -0.90065,-1.39191 -1.801262,-2.78377 -2.701893,-4.17565 -1.801297,-4.25761 -3.602522,-8.51505 -5.403784,-12.77258 4.175736,3.9301 8.351303,7.86005 12.526954,11.79007 0.08188,3.35697 0.163751,6.7138 0.245629,10.07069 -1.801299,1.31004 -3.602524,2.62002 -5.403786,3.93003 -2.046928,-1.31004 -4.093777,-2.62002 -6.140665,-3.93003 -2.374437,-4.17573 -4.748778,-8.3513 -7.123168,-12.52695 0.163754,-3.27509 0.327502,-6.55004 0.491252,-9.82506 2.046928,1.71942 4.093776,3.43877 6.140665,5.15815 2.538192,3.19321 5.076282,6.38629 7.614422,9.57944 -2.292559,5.15826 -4.585028,10.31632 -6.877542,15.47447 -2.456315,0.49127 -4.912532,0.98251 -7.368797,1.47376 -3.766351,-0.32751 -7.532549,-0.655 -11.298822,-0.9825 -1.965052,-3.52072 -3.930025,-7.0413 -5.895038,-10.56195 0.327509,-6.14078 0.655005,-12.28132 0.982506,-18.42199 2.210684,-3.43884 4.421278,-6.87754 6.631917,-10.31631 2.456314,3.76635 4.912531,7.53254 7.368796,11.29882 0.818772,7.28707 1.637512,14.57384 2.456267,21.86076 -7.041435,4.667 -14.08259,9.33381 -21.123886,14.00072 -4.175733,-0.40939 -8.351301,-0.81876 -12.526953,-1.22814 -1.71942,-2.78382 -3.438772,-5.56753 -5.1581575,-8.3513 -2.2106834,-2.8657 -4.4212782,-5.73129 -6.6319172,-8.59693 2.8657005,-9.49775 5.7312864,-18.99512 8.5969297,-28.49268 5.158261,-3.84823 10.316315,-7.6963 15.474473,-11.54445 3.111333,1.8013 6.222539,3.60253 9.333809,5.40379 0.491262,5.97703 0.982506,11.95382 1.473761,17.93074 -0.982528,5.73139 -1.965013,11.46257 -2.947519,17.19385 -3.520718,4.83076 -7.041296,9.66131 -10.561943,14.49197 -2.701946,-0.65502 -5.403784,-1.31001 -8.105677,-1.96501 -2.8657,-3.02946 -5.731286,-6.05879 -8.596929,-9.08819 1.7194202,-8.84273 3.438772,-17.68511 5.158158,-26.52766 4.58512,-4.01198 9.170058,-8.0238 13.755088,-12.0357 2.128805,0.81877 4.257526,1.63751 6.38629,2.45626 0.57314,6.71393 1.146257,13.42759 1.719387,20.14138 -1.555668,4.50324 -3.11127,9.00631 -4.666906,13.50946 -2.210684,2.94758 -4.421278,5.89504 -6.631917,8.84256 -1.883175,-0.49127 -3.766274,-0.98251 -5.649411,-1.47376 -2.210683,-2.12881 -4.421278,-4.25753 -6.631917,-6.38629 1.555666,-7.45083 3.11127,-14.90135 4.666904,-22.35202 3.356964,-2.8657 6.713793,-5.73129 10.070689,-8.59693 1.310034,0.57314 2.620018,1.14626 3.930026,1.71939 0.327509,5.15826 0.655002,10.31631 0.982506,15.47447 -2.701946,5.89515 -5.403785,11.79007 -8.105677,17.68511 -2.210683,-2.21068 -4.421278,-4.42128 -6.631917,-6.63192 0.900649,-5.48576 1.801261,-10.97131 2.701892,-16.45697 2.374438,-2.62007 4.74878,-5.24004 7.12317,-7.86006 0.491263,0.81878 0.982507,1.63752 1.473758,2.45627 -0.327506,3.19321 -0.655002,6.38629 -0.982503,9.57944 -1.883176,3.02945 -3.766275,6.05878 -5.649412,9.08818 -5.48577,-3.19321 -10.9713202,-6.38629 -16.4569798,-9.57944 0,-10.15276 0,-20.30512 0,-30.45769 3.0294548,-3.19321 6.0587888,-6.38629 9.0881828,-9.579435 3.930103,0.818772 7.86005,1.637509 11.790075,2.456265 -0.245632,1.47379 -0.491253,2.94752 -0.73688,4.42128 -1.71942,0 -3.438772,0 -5.158158,0 -1.555666,-0.16376 -3.111269,-0.3275 -4.666904,-0.49125 -0.900649,-0.65502 -1.801262,-1.31001 -2.701893,-1.96502 -0.491263,-0.98253 -0.982506,-1.96501 -1.473759,-2.947517 2.29256,-0.57314 4.585029,-1.146257 6.877544,-1.719386 2.456314,0.409387 4.912531,0.818755 7.368797,1.228134 0.982525,0.491263 1.965013,0.982509 2.947519,1.473759 0,0.57314 0,1.14626 0,1.71939 -1.228159,0.49126 -2.456266,0.9825 -3.684399,1.47375 -2.128806,-0.49126 -4.257527,-0.9825 -6.386291,-1.47375 -1.637543,-1.39192 -3.27502,-2.783772 -4.912531,-4.175655 1.883175,-0.655018 3.766274,-1.31001 5.649411,-1.965013 3.684472,1.064403 7.368797,2.128764 11.053194,3.193145 0,0.736893 0,1.473763 0,2.210643 -1.883174,-0.32751 -3.766273,-0.65501 -5.64941,-0.98251 -1.965051,-1.801297 -3.930025,-3.602525 -5.895037,-5.403784 1.391912,-0.327509 2.783767,-0.655005 4.175651,-0.982506 2.947578,0.736893 5.895038,1.473758 8.842557,2.210638 0.245631,0.573141 0.491252,1.146257 0.736878,1.719387 -3.193209,0.08187 -6.386289,0.163751 -9.579435,0.245626 -0.409385,-1.801299 -0.818755,-3.602524 -1.228132,-5.403784 3.111332,0.491263 6.222539,0.982507 9.333809,1.473759 0.982525,0.736893 1.965012,1.473758 2.947519,2.210638 -2.701946,0.08188 -5.403784,0.163751 -8.105677,0.245626 -0.08188,-1.637543 -0.163751,-3.27502 -0.245626,-4.912529 3.029455,0.900647 6.058789,1.801259 9.088183,2.70189 -2.04693,0.491263 -4.093776,0.982507 -6.140664,1.473761 -0.163756,-0.982527 -0.327504,-1.965012 -0.491254,-2.947519 1.228158,-0.655018 2.456267,-1.310007 3.684399,-1.965013 0.818772,0.573141 1.637509,1.146257 2.456265,1.719387 -0.573141,0.491263 -1.146257,0.982507 -1.719387,1.473759 -0.736894,-0.163754 -1.473758,-0.327502 -2.210639,-0.491252 4.175736,-2.456315 8.351303,-4.912532 12.526955,-7.3688"
           inkscape:path-effect="#path-effect52"
           sodipodi:nodetypes="cccccccccccccccccccccccccccccccccccccccccccccccccccccccccccccccccccccccccccccccccccccccccccccccccccc" />
      </g>
      <path
         style="fill:none;fill-opacity:0.790385;stroke:#000000;stroke-width:0.465;stroke-dasharray:none;stroke-opacity:0.784832"
         d="m 160.8854,75.898607 13.75508,-24.808283 20.63264,2.210639 6.14066,12.035702 -11.0532,13.263835 -20.387,-6.386293 9.82506,-24.317028 v 0 l 16.70261,0.73688 6.87754,13.509461 -0.9825,-0.73688 -12.03571,13.50946 -15.7201,-4.421277 9.08819,-24.562657 14.24634,-0.245626 5.89503,11.790074 -14.24634,14.246341 -9.82506,-3.438771 8.59693,-25.545163 10.56194,-1.719387 5.40379,13.018209 -14.49197,13.509461 -5.15816,-2.210639 8.84256,-27.264547 7.86005,-2.456268 4.17565,12.772583 -11.29882,11.544448 -3.43877,-1.228135 4.91253,-26.036415 4.91253,-7.123169 5.40378,3.193146 -2.45626,5.403784 -10.80757,-3.930025 4.17565,-9.825063 6.63192,5.649411 -5.64941,8.105677 -14.00072,-3.438771 8.10568,-19.158873 8.59693,9.579436 -4.42128,7.12317 -21.12388,-4.421278 9.33381,-20.8782574 7.86005,16.9482324 -4.91254,16.948232 -22.59764,-2.701891 8.59693,-26.0364155 10.31632,9.8250625 -5.89504,11.544447 -16.45698,4.175652 -9.57944,-13.755087 6.14067,-7.12317 7.12317,6.140664 -3.93003,8.842557 -14.24634,2.947519 -14.73759,-5.158159"
         id="path52" />
    </g>
    <path
       style="fill:none;fill-opacity:1;stroke:#000000;stroke-width:0.558205;stroke-linecap:butt;stroke-linejoin:round;stroke-dasharray:none;stroke-dashoffset:0;stroke-opacity:0.784832;paint-order:stroke fill markers"
       d="m 108.58553,174.26126 35.76211,-12.79562 18.70129,9.5147 -62.66572,23.95076 z"
       id="path54" />
    <path
       style="fill:none;fill-opacity:1;stroke:#000000;stroke-width:1.32474;stroke-linecap:butt;stroke-linejoin:round;stroke-dasharray:none;stroke-dashoffset:0;stroke-opacity:1;paint-order:stroke fill markers"
       d="m 132.18035,183.26558 9.40897,3.52774"
       id="path55"
       sodipodi:nodetypes="cc" />
    <path
       style="fill:none;fill-opacity:1;stroke:#000000;stroke-width:0.486294;stroke-linecap:butt;stroke-linejoin:round;stroke-dasharray:none;stroke-dashoffset:0;stroke-opacity:0.784832;paint-order:stroke fill markers"
       d="m 131.05207,186.532 20.7965,-8.72099 7.86895,41.27934 -10.96032,10.46519 z"
       id="path56" />
    <path
       style="fill:none;fill-opacity:1;stroke:#000000;stroke-width:1.258;stroke-linecap:butt;stroke-linejoin:round;stroke-dasharray:none;stroke-dashoffset:0;stroke-opacity:0.784832;paint-order:stroke fill markers"
       d="m 112.76617,144.74411 c 0.40845,0.93037 0.8169,1.86074 1.65587,2.43904 0.83896,0.5783 2.10839,0.80451 4.55076,0.70373 2.44236,-0.10077 6.05747,-0.52852 9.50194,-1.46034 3.44447,-0.93183 6.7181,-2.36767 7.50493,-3.02267 0.78684,-0.655 -0.91311,-0.52914 -4.05638,0.0529 -3.14328,0.58204 -7.72968,1.62022 -10.81703,2.76576 -3.08734,1.14554 -4.67546,2.39836 -6.26363,3.65122 -0.002,0.33565 -0.003,0.67129 0.42539,0.65486 0.83896,0.5783 2.10839,0.80452 4.55076,0.70374 2.44236,-0.10077 6.05747,-0.52852 9.50194,-1.46035 3.44447,-0.93182 6.7181,-2.36766 7.50493,-3.02266 0.78684,-0.655 -0.91311,-0.52914 -4.05638,0.0529 -3.14327,0.58204 -7.72968,1.62022 -10.81703,2.76575 -3.08734,1.14554 -4.67546,2.39837 -6.26363,3.65122 -0.002,0.33565 -0.003,0.6713 0.42539,0.65487 0.83896,0.5783 2.1084,0.80451 4.55077,0.70374 2.44235,-0.10078 6.05747,-0.52853 9.50193,-1.46035 3.44447,-0.93183 6.7181,-2.36767 7.50494,-3.02266 0.78683,-0.655 -0.91311,-0.52914 -4.05639,0.0529 -3.14327,0.58203 -7.72968,1.62021 -10.81702,2.76575 -3.08735,1.14554 -4.67547,2.39836 -6.26364,3.65122 -0.002,0.33565 -0.003,0.6713 0.42539,0.65487 0.83896,0.5783 2.1084,0.80451 4.55077,0.70373 2.44235,-0.10077 6.05747,-0.52852 9.50193,-1.46034 3.44447,-0.93183 6.7181,-2.36767 7.50494,-3.02267 0.78683,-0.655 -0.91311,-0.52914 -4.05639,0.0529 -3.14327,0.58204 -7.72968,1.62022 -10.81702,2.76576 -3.08735,1.14554 -4.67547,2.39836 -6.26364,3.65122 -0.002,0.33565 -0.003,0.67129 0.42539,0.65486 0.83896,0.5783 2.1084,0.80452 4.55077,0.70374 2.44235,-0.10077 6.05747,-0.52852 9.50194,-1.46035 3.44446,-0.93182 6.71809,-2.36766 7.50493,-3.02266 0.78684,-0.655 -0.91311,-0.52914 -4.05639,0.0529 -3.14327,0.58204 -7.72967,1.62022 -10.81702,2.76575 -3.08735,1.14554 -4.67547,2.39836 -6.26364,3.65122 -0.002,0.33565 -0.003,0.6713 0.42539,0.65487 0.83896,0.5783 2.1084,0.80451 4.55077,0.70374 2.44236,-0.10078 6.05747,-0.52853 9.50194,-1.46035 3.44446,-0.93183 6.71809,-2.36767 7.50493,-3.02266 0.78684,-0.655 -0.91311,-0.52914 -4.05639,0.0529 -3.14327,0.58203 -7.72967,1.62021 -10.81702,2.76575 -3.08735,1.14554 -4.67547,2.39836 -6.26364,3.65122 -0.002,0.33565 -0.003,0.6713 0.4254,0.65487 0.83895,0.5783 2.10839,0.80451 4.55076,0.70373 2.44236,-0.10077 6.05747,-0.52852 9.50194,-1.46035 3.44447,-0.93182 6.71809,-2.36766 7.50493,-3.02266 0.78684,-0.655 -0.91311,-0.52914 -4.05638,0.0529 -3.14328,0.58204 -7.72968,1.62022 -10.81703,2.76576 -3.08735,1.14554 -4.67547,2.39836 -6.26364,3.65122 -0.002,0.33565 -0.003,0.67129 0.4254,0.65486 0.83896,0.5783 2.10839,0.80452 4.55076,0.70374 2.44236,-0.10077 6.05747,-0.52852 9.50194,-1.46035 3.44447,-0.93182 6.71809,-2.36766 7.50493,-3.02266 0.78684,-0.655 -0.91311,-0.52914 -4.05638,0.0529 -3.14328,0.58204 -7.72968,1.62021 -10.81703,2.76575 -3.08735,1.14554 -4.67547,2.39836 -6.26363,3.65122"
       id="path57"
       inkscape:path-effect="#path-effect121"
       inkscape:original-d="m 124.00589,142.10817 7.21805,28.54407"
       transform="translate(0.34736842)" />
    <path
       style="fill:none;fill-opacity:1;stroke:#000000;stroke-width:2.23914;stroke-linecap:butt;stroke-linejoin:round;stroke-dasharray:none;stroke-dashoffset:0;stroke-opacity:0.977072;paint-order:stroke fill markers"
       d="m 120.40597,182.16287 -5.63392,13.87933"
       id="path58"
       sodipodi:nodetypes="cc" />
    <path
       style="fill:none;fill-opacity:1;stroke:#000000;stroke-width:0.434346;stroke-linecap:butt;stroke-linejoin:round;stroke-dasharray:none;stroke-dashoffset:0;stroke-opacity:0.784832;paint-order:stroke fill markers"
       d="m 107.61454,196.69852 -27.097352,35.12819 9.905713,3.92756 22.340329,-10.15028 -13.005084,-3.99846 30.924654,-35.75561 z"
       id="path59" />
    <path
       style="fill:none;fill-opacity:1;stroke:#000000;stroke-width:1.59598;stroke-linecap:butt;stroke-linejoin:round;stroke-dasharray:none;stroke-dashoffset:0;stroke-opacity:0.784832;paint-order:stroke fill markers"
       d="m 93.502807,227.89003 5.973009,10.76741"
       id="path73" />
    <path
       style="fill:none;fill-opacity:1;stroke:#000000;stroke-width:0.591;stroke-linecap:butt;stroke-linejoin:round;stroke-dasharray:none;stroke-dashoffset:0;stroke-opacity:0.784832;paint-order:stroke fill markers"
       d="m 65.506822,271.25816 c 0.341482,1.04709 0.747706,2.1424 1.626135,2.84394 0.870907,0.69555 2.201022,0.99053 4.669241,0.82779 2.589211,-0.17071 5.970478,-0.808 9.466852,-2.02407 3.275925,-1.1394 6.726988,-2.79995 7.418098,-3.32187 0.772507,-0.58338 -0.871412,-0.33483 -4.032956,0.37546 -3.064806,0.68856 -7.807073,1.86353 -10.803388,3.10352 -3.082129,1.27552 -4.578442,2.70183 -6.013685,4.2858 0.301167,1.15772 0.678892,2.33112 1.451916,3.01597 1.027513,0.67821 2.435922,0.8588 4.850783,0.37571 2.587388,-0.51761 5.678104,-1.65246 8.923894,-3.42758 2.84224,-1.55443 6.278007,-3.85138 6.780908,-4.29238 0.692824,-0.60756 -0.797473,-0.10989 -3.820689,1.03561 -2.846905,1.07869 -7.488905,2.88264 -10.200214,4.48889 -2.848734,1.68766 -4.036306,3.37445 -5.094374,5.28203 0.578048,1.22955 1.246297,2.45325 2.185094,3.06711 1.187158,0.57377 2.630608,0.53305 4.870072,-0.44441 2.439652,-1.06483 5.086199,-2.89433 7.827532,-5.4644 2.071527,-1.94211 5.446885,-5.52733 5.569689,-5.67688 0.527029,-0.64183 -0.718234,0.1891 -3.413968,1.99243 -2.453774,1.64148 -6.673799,4.4293 -8.886221,6.54433 -2.381653,2.27681 -3.103526,4.27904 -3.613308,6.57175 0.07467,0.41292 0.155904,0.81815 0.247664,1.21072 0.797767,0.56087 1.609596,1.00305 2.465673,1.12184 1.185251,0.16449 2.477906,-0.29273 4.43368,-1.75468 2.045649,-1.52914 4.492076,-3.91209 6.706174,-6.81361 2.061023,-2.70093 4.031087,-5.99176 4.323207,-6.75351 0.335971,-0.87611 -0.848066,0.21886 -3.084356,2.51893 -2.13447,2.19535 -5.507543,5.76142 -7.293312,8.37556 -1.86089,2.72411 -2.26756,4.73631 -2.594654,6.84175 0.880708,0.81103 1.751489,1.56237 2.664966,1.69422 1.128255,-0.01 2.30967,-0.63517 4.07097,-2.32695 1.817106,-1.74538 4.053414,-4.43652 5.946743,-7.5452 1.813882,-2.97823 3.33563,-6.3726 3.522546,-7.24632 0.200985,-0.93949 -0.895132,0.30188 -2.844027,2.84849 -1.889342,2.46879 -4.750859,6.37779 -6.238284,9.22174 -1.53136,2.92795 -1.761382,4.96815 -1.942103,7.07053 0.877192,0.67701 1.737533,1.30675 2.611759,1.33406 1.071402,-0.1401 2.165174,-0.88044 3.796819,-2.71655 1.656966,-1.8646 3.78194,-4.76462 5.478007,-7.96747 1.663759,-3.14184 2.916795,-6.57906 3.018975,-7.5408 0.10518,-0.99001 -0.941784,0.33832 -2.707193,3.03196 -1.736257,2.64916 -4.253953,6.74635 -5.55402,9.74292 -1.321456,3.04588 -1.457949,5.09103 -1.578254,7.16155 0.844354,0.57142 1.663832,1.10698 2.492978,1.06514 1.01471,-0.22633 2.044402,-1.02869 3.611228,-2.92349 1.562356,-1.88938 3.680531,-4.89378 5.299961,-8.0804 1.62411,-3.19581 2.76192,-6.60858 2.8125,-7.63696 0.0505,-1.02711 -0.98999,0.32762 -2.67386,3.06934 -1.67807,2.73229 -4.013956,6.87127 -5.240517,9.93912 -1.230564,3.07786 -1.357875,5.10498 -1.503105,7.1148 m -29.402109,-30.2613 c 0.449789,1.11339 0.977191,2.26586 1.930649,2.96702 0.94887,0.69781 2.323458,0.94887 4.780294,0.64775 2.605482,-0.31933 5.862789,-1.18033 9.264549,-2.64666 3.09783,-1.33532 6.553645,-3.2626 7.171256,-3.75537 0.743893,-0.59353 -0.835568,-0.23229 -3.951129,0.66845 -2.979126,0.8613 -7.708741,2.30789 -10.590654,3.71244 -2.994557,1.45946 -4.356289,3.00915 -5.624249,4.74723 0.432118,1.20061 0.947284,2.40528 1.801458,3.06354 1.106901,0.63683 2.538345,0.72022 4.880709,0.0117 2.532921,-0.76621 5.418431,-2.22368 8.444889,-4.36683 2.500538,-1.77072 5.908687,-4.59224 6.247051,-4.93288 0.619856,-0.62401 -0.75768,0.0309 -3.641634,1.47694 -2.67047,1.33896 -7.145244,3.58957 -9.632071,5.43285 -2.644488,1.96014 -3.618662,3.79772 -4.42406,5.89021 0.738223,1.24366 1.58895,2.48194 2.602826,3.02668 0.439093,0.1693 0.895609,0.25623 1.390441,0.24639 0,0 0,0 0,0 0.900755,-0.13018 1.95662,-0.5782 3.32237,-1.44275 2.185606,-1.38354 4.774068,-3.57734 7.1949,-6.33182 2.215521,-2.52087 4.488006,-5.7347 4.834947,-6.43273 0.396121,-0.79699 -0.685556,0.0521 -2.844073,1.94756 -0.139025,0.12555 -0.257732,0.23275 -0.396757,0.3583 -2.201775,1.9883 -6.069619,5.39976 -7.962668,7.82332 -0.01295,0.0166 -0.02583,0.0331 -0.03866,0.0497 -2.038316,2.56593 -2.560549,4.54474 -2.99023,6.62681 0.871498,0.88878 1.736031,1.71104 2.666979,1.90851 1.156728,0.0719 2.390826,-0.4761 4.241254,-2.06365 1.922762,-1.6496 4.251912,-4.19863 6.290122,-7.21807 1.926378,-2.85377 3.647727,-6.20399 3.88574,-7.0247 0.263707,-0.90932 -0.871777,0.2661 -2.951254,2.70197 -2.000475,2.34333 -5.096656,6.10096 -6.719452,8.83927 -1.681153,2.83679 -1.989148,4.86584 -2.232292,6.97336 0.882607,0.74046 1.751988,1.4276 2.64656,1.50274 1.099814,-0.0804 2.23445,-0.76995 3.922824,-2.54459 1.728601,-1.81691 3.896664,-4.6253 5.676039,-7.79499 1.725744,-3.07416 3.092583,-6.49772 3.233624,-7.41836 0.148055,-0.96642 -0.918379,0.32599 -2.762674,2.95849 -1.801164,2.57094 -4.470063,6.59272 -5.849806,9.52295 -1.411482,2.99765 -1.584295,5.04323 -1.724091,7.13326 0.864448,0.62068 1.708141,1.19988 2.560565,1.1882 1.043028,-0.18873 2.101831,-0.96668 3.692954,-2.84285 1.601752,-1.8887 3.709694,-4.85416 5.35265,-8.0626 1.629283,-3.18174 2.806913,-6.61618 2.878603,-7.61368 0.0726,-1.01022 -0.96559,0.33886 -2.67759,3.06892 -1.695063,2.70303 -4.102088,6.8391 -5.350927,9.88164 -1.261192,3.07264 -1.382434,5.1116 -1.504592,7.1554 0.816883,0.52921 1.604632,1.0281 2.408997,0.9649 0.986477,-0.25287 1.992859,-1.06649 3.551641,-2.95846 1.538011,-1.86677 3.695201,-4.88337 5.319961,-8.02088 1.64666,-3.17983 2.78104,-6.55603 2.82066,-7.61067 0.0391,-1.04068 -1.01515,0.30465 -2.696,3.03326 -1.68584,2.7367 -3.98904,6.84303 -5.222807,9.91534 -1.229397,3.06144 -1.384447,5.07129 -1.573793,7.03977"
       id="path74"
       transform="matrix(0.94450954,0,0,0.94450954,26.013902,-20.932628)"
       inkscape:original-d="m 77.463157,269.38419 c 1.157893,4.74737 2.315789,9.49476 3.473683,14.24213 7.410674,3.99481 14.821053,7.98946 22.23158,11.98419"
       inkscape:path-effect="#path-effect74;#path-effect75" />
    <path
       style="fill:none;fill-opacity:1;stroke:#000000;stroke-width:0;stroke-linecap:butt;stroke-linejoin:round;stroke-dasharray:none;stroke-dashoffset:0;stroke-opacity:0.784832;paint-order:stroke fill markers"
       d="m 142.21778,241.45091 c 1.55563,3.84815 3.11127,7.6963 4.6669,11.54445"
       id="path91"
       inkscape:original-d="m 142.21778,241.45091 c 1.55563,3.84815 3.11127,7.6963 4.6669,11.54445"
       inkscape:path-effect="#path-effect116"
       transform="matrix(0.94450954,0,0,0.94450954,19.016199,-9.7987906)" />
    <path
       style="fill:none;fill-opacity:1;stroke:#000000;stroke-width:1.991;stroke-linecap:butt;stroke-linejoin:round;stroke-dasharray:none;stroke-dashoffset:0;stroke-opacity:0.784832;paint-order:stroke fill markers"
       d="m 141.72652,242.43341 c 1.06438,4.42128 2.12877,8.84256 3.19315,13.26384"
       id="path116"
       inkscape:original-d="m 141.72652,242.43341 c 1.06439,4.42128 2.12877,8.84256 3.19315,13.26384"
       inkscape:path-effect="#path-effect118"
       transform="matrix(0.94450954,0,0,0.94450954,19.016199,-9.7987906)" />
    <path
       style="fill:none;fill-opacity:1;stroke:#000000;stroke-width:0.591;stroke-linecap:butt;stroke-linejoin:round;stroke-dasharray:none;stroke-dashoffset:0;stroke-opacity:0.784832;paint-order:stroke fill markers"
       d="m 134.66799,248.45498 c 0.35219,0.94349 0.70438,1.88698 1.35613,2.51641 0.65174,0.62943 1.60301,0.94479 3.40441,1.02526 1.8014,0.0805 4.45279,-0.0739 6.95084,-0.73581 2.49805,-0.66188 4.84262,-1.83117 5.38948,-2.41647 0.54687,-0.58531 -0.70395,-0.58661 -2.99799,-0.24605 -2.29404,0.34057 -5.63116,1.02297 -7.85352,1.92092 -2.22237,0.89794 -3.32987,2.01135 -4.4374,3.1248 0.14272,0.85253 0.28543,1.70507 0.72771,2.24354 0.65174,0.62943 1.60301,0.94479 3.40441,1.02526 1.80139,0.0805 4.45279,-0.0739 6.95084,-0.73581 2.49805,-0.66188 4.84261,-1.83117 5.38948,-2.41647 0.54687,-0.58531 -0.70395,-0.58661 -2.99799,-0.24605 -2.29404,0.34057 -5.63116,1.02298 -7.85353,1.92092 -2.22236,0.89794 -3.32986,2.01136 -4.43739,3.1248 0.14271,0.85254 0.28543,1.70507 0.72771,2.24354 0.65174,0.62943 1.60301,0.94479 3.40441,1.02527 1.80139,0.0805 4.45279,-0.074 6.95084,-0.73582 2.49805,-0.66187 4.84261,-1.83116 5.38948,-2.41647 0.54687,-0.5853 -0.70395,-0.58661 -2.99799,-0.24605 -2.29405,0.34057 -5.63116,1.02298 -7.85353,1.92092 -2.22237,0.89794 -3.32986,2.01136 -4.43739,3.1248 0.14271,0.85254 0.28543,1.70507 0.7277,2.24355 0.65175,0.62943 1.60302,0.94479 3.40442,1.02526 1.80139,0.0805 4.45279,-0.0739 6.95084,-0.73582 2.49805,-0.66187 4.84261,-1.83116 5.38948,-2.41647 0.54687,-0.5853 -0.70396,-0.58661 -2.998,-0.24604 -2.29404,0.34056 -5.63115,1.02297 -7.85352,1.92091 -2.22237,0.89795 -3.32986,2.01136 -4.4374,3.12481 0.14272,0.85253 0.28543,1.70506 0.72771,2.24354 0.65174,0.62943 1.60301,0.94479 3.40442,1.02526 1.80139,0.0805 4.45278,-0.0739 6.95083,-0.73582 2.49805,-0.66187 4.84262,-1.83116 5.38949,-2.41646 0.54687,-0.58531 -0.70396,-0.58662 -2.998,-0.24605 -2.29404,0.34056 -5.63115,1.02297 -7.85352,1.92092 -2.22237,0.89794 -3.32987,2.01135 -4.4374,3.1248 0.14272,0.85253 0.28543,1.70507 0.72771,2.24354 0.65174,0.62943 1.60301,0.94479 3.40441,1.02526 1.8014,0.0805 4.45279,-0.0739 6.95084,-0.73581 2.49805,-0.66188 4.84262,-1.83117 5.38948,-2.41647 0.54687,-0.58531 -0.70395,-0.58661 -2.99799,-0.24605 -2.29404,0.34057 -5.63116,1.02297 -7.85352,1.92092 -2.22237,0.89794 -3.32987,2.01135 -4.4374,3.1248 m -7.13783,-27.31192 c 0.35219,0.94349 0.70438,1.88698 1.35613,2.51641 0.65175,0.62943 1.60302,0.94479 3.40442,1.02526 1.80139,0.0805 4.45279,-0.0739 6.95084,-0.73582 2.49805,-0.66187 4.84261,-1.83116 5.38948,-2.41647 0.54687,-0.5853 -0.70396,-0.58661 -2.998,-0.24604 -2.29404,0.34056 -5.63115,1.02297 -7.85352,1.92091 -2.22237,0.89795 -3.32986,2.01136 -4.4374,3.12481 0.14272,0.85253 0.28543,1.70506 0.72771,2.24354 0.65174,0.62943 1.60301,0.94479 3.40442,1.02526 1.80139,0.0805 4.45278,-0.0739 6.95083,-0.73582 2.49805,-0.66187 4.84262,-1.83116 5.38949,-2.41647 0.54687,-0.5853 -0.70396,-0.58661 -2.998,-0.24604 -2.29404,0.34056 -5.63115,1.02297 -7.85352,1.92092 -2.22237,0.89794 -3.32987,2.01135 -4.4374,3.1248 0.14272,0.85253 0.28543,1.70506 0.72771,2.24354 0.65174,0.62943 1.60301,0.94479 3.40441,1.02526 1.8014,0.0805 4.45279,-0.0739 6.95084,-0.73581 2.49805,-0.66188 4.84262,-1.83117 5.38948,-2.41647 0.54687,-0.58531 -0.70395,-0.58661 -2.99799,-0.24605 -2.29404,0.34057 -5.63116,1.02297 -7.85352,1.92092 -2.22237,0.89794 -3.32987,2.01135 -4.4374,3.1248 0.14272,0.85253 0.28543,1.70507 0.72771,2.24354 0.65174,0.62943 1.60301,0.94479 3.40441,1.02526 1.80139,0.0805 4.45279,-0.0739 6.95084,-0.73581 2.49805,-0.66188 4.84261,-1.83117 5.38948,-2.41647 0.54687,-0.58531 -0.70395,-0.58661 -2.99799,-0.24605 -2.29404,0.34057 -5.63116,1.02298 -7.85353,1.92092 -2.22236,0.89794 -3.32986,2.01136 -4.43739,3.1248 0.14271,0.85254 0.28543,1.70507 0.72771,2.24354 0.65174,0.62943 1.60301,0.9448 3.40441,1.02527 1.80139,0.0805 4.45279,-0.074 6.95084,-0.73582 2.49805,-0.66187 4.84261,-1.83116 5.38948,-2.41647 0.54687,-0.5853 -0.70395,-0.58661 -2.99799,-0.24605 -2.29405,0.34057 -5.63116,1.02298 -7.85353,1.92092 -2.22237,0.89795 -3.32986,2.01136 -4.43739,3.1248 0.14271,0.85254 0.28543,1.70507 0.7277,2.24355 0.65175,0.62943 1.60302,0.94479 3.40442,1.02526 1.80139,0.0805 4.45279,-0.0739 6.95084,-0.73582 2.49805,-0.66187 4.84261,-1.83116 5.38948,-2.41647 0.54687,-0.5853 -0.70396,-0.58661 -2.998,-0.24604 -2.29404,0.34056 -5.63115,1.02297 -7.85352,1.92091 -2.22237,0.89795 -3.32986,2.01136 -4.4374,3.12481"
       id="path118"
       transform="matrix(0.94450954,0,0,0.94450954,21.336165,-9.3347973)"
       inkscape:original-d="m 142.4634,252.74973 c 2.12877,8.84256 4.25753,17.68512 6.38629,26.52766"
       inkscape:path-effect="#path-effect119;#path-effect120" />
    <path
       style="fill:none;fill-opacity:1;stroke:#000000;stroke-width:0.591;stroke-linecap:butt;stroke-linejoin:round;stroke-dasharray:none;stroke-dashoffset:0;stroke-opacity:0.784832;paint-order:stroke fill markers"
       d="m 132.34737,257.74736 -6.6,10.76842 -3.82106,14.58947 3.47369,2.77894 21.88421,-32.30525 -6.25264,-0.69474 z"
       id="path120" />
    <path
       style="fill:none;fill-opacity:1;stroke:#000000;stroke-width:0.591;stroke-linecap:butt;stroke-linejoin:round;stroke-dasharray:none;stroke-dashoffset:0;stroke-opacity:0.784832;paint-order:stroke fill markers"
       d="m 169.86315,256.70526 -7.98947,2.08421 -2.08421,9.72631 1.73684,8.68421 11.81053,17.02107 5.21052,-5.21055 z"
       id="path121" />
    <path
       style="fill:none;fill-opacity:1;stroke:#000000;stroke-width:0.54919;stroke-linecap:butt;stroke-linejoin:round;stroke-dasharray:none;stroke-dashoffset:0;stroke-opacity:1;paint-order:stroke fill markers"
       d="m 154.6551,195.34855 -6.90166,1.42376 0.86443,4.1903 4.68327,-0.96612 -0.0508,-0.24649 -0.73946,0.15254 -1.62715,-7.88759 -6.16219,1.27121 3.25431,15.7752 4.43676,-0.91527 -0.86442,-4.1903 -7.39463,1.52546 -3.20345,-15.5287 6.65516,-1.37291 3.20346,15.52869"
       id="path122" />
    <path
       sodipodi:type="star"
       style="fill:none;fill-opacity:1;stroke:#000000;stroke-width:0.6;stroke-linecap:butt;stroke-linejoin:round;stroke-dasharray:none;stroke-dashoffset:0;stroke-opacity:1;paint-order:stroke fill markers"
       id="path125"
       inkscape:flatsided="false"
       sodipodi:sides="30"
       sodipodi:cx="23.580151"
       sodipodi:cy="145.1653"
       sodipodi:r1="11.761897"
       sodipodi:r2="2.2015133"
       sodipodi:arg1="1.0697829"
       sodipodi:arg2="1.1745027"
       inkscape:rounded="0.226"
       inkscape:randomized="2.7755576e-17"
       d="m 29.229562,155.48161 c -1.898034,1.0394 -2.80334,-9.12073 -4.799623,-8.28542 -1.996283,0.83531 4.603948,8.6125 2.531287,9.23457 -2.07266,0.62206 -0.845773,-9.50427 -2.972103,-9.10227 -2.12633,0.402 2.7127,9.38152 0.555998,9.55905 -2.156702,0.17754 1.148757,-9.47242 -1.014688,-9.52129 -2.163446,-0.0489 0.702895,9.74051 -1.443591,9.46576 -2.146485,-0.27474 3.093082,-9.02658 0.987074,-9.52419 -2.106009,-0.49761 -1.337631,9.67379 -3.380088,8.95877 -2.042457,-0.71502 4.902224,-8.18625 2.945695,-9.11084 -1.956528,-0.9246 -3.319695,9.18429 -5.168858,8.06024 -1.849164,-1.12405 6.497115,-6.98813 4.775576,-8.29931 -1.721539,-1.31118 -5.156673,8.29339 -6.731726,6.80945 -1.575052,-1.48395 7.808052,-5.4846 6.396742,-7.12505 -1.41131,-1.64046 -6.76828,7.04002 -8.000384,5.26103 -1.232104,-1.77899 8.777738,-3.74136 7.738339,-5.63939 -1.0394,-1.89804 -8.084081,5.47898 -8.919388,3.48269 -0.835307,-1.99628 9.363796,-1.8346 8.741733,-3.90726 -0.622062,-2.07267 -9.046567,3.67847 -9.44857,1.55214 -0.402003,-2.12633 9.540611,0.15233 9.363072,-2.00437 -0.177539,-2.15671 -9.613676,1.7172 -9.564806,-0.44625 0.04887,-2.16344 9.300455,2.13261 9.5752,-0.0139 0.274744,-2.14648 -9.760622,-0.31911 -9.263013,-2.42512 0.497608,-2.10601 8.653825,4.01967 9.368845,1.97721 0.71502,-2.04245 -9.480981,-2.34149 -8.556383,-4.29802 0.924598,-1.95652 7.628982,5.73107 8.753027,3.88191 1.124046,-1.84917 -8.786975,-4.26153 -7.475796,-5.98307 1.311178,-1.72154 6.270714,7.19198 7.754659,5.61693 1.483946,-1.57506 -7.708937,-5.99532 -6.068482,-7.40663 1.640454,-1.41131 4.638387,8.33857 6.417376,7.10647 1.77899,-1.23211 -6.293981,-7.46709 -4.395947,-8.50649 1.898034,-1.0394 2.80334,9.12073 4.799623,8.28543 1.996284,-0.83531 -4.603948,-8.61251 -2.531287,-9.23457 2.072661,-0.62206 0.845774,9.50427 2.972103,9.10227 2.12633,-0.40201 -2.7127,-9.38152 -0.555998,-9.55906 2.156702,-0.17754 -1.148757,9.47243 1.014688,9.5213 2.163446,0.0489 -0.702895,-9.74051 1.443591,-9.46577 2.146485,0.27475 -3.093082,9.02659 -0.987073,9.5242 2.106008,0.49761 1.33763,-9.6738 3.380087,-8.95878 2.042457,0.71502 -4.902224,8.18625 -2.945695,9.11085 1.956528,0.9246 3.319695,-9.18429 5.168858,-8.06024 1.849164,1.12404 -6.497115,6.98813 -4.775576,8.2993 1.721539,1.31118 5.156673,-8.29338 6.731726,-6.80944 1.575052,1.48395 -7.808051,5.4846 -6.396742,7.12505 1.41131,1.64046 6.76828,-7.04002 8.000384,-5.26103 1.232104,1.77899 -8.777738,3.74136 -7.738338,5.63939 1.039399,1.89803 8.08408,-5.47898 8.919387,-3.4827 0.835307,1.99629 -9.363796,1.83461 -8.741733,3.90727 0.622063,2.07266 9.046567,-3.67847 9.44857,-1.55214 0.402003,2.12633 -9.540611,-0.15233 -9.363072,2.00437 0.177539,2.1567 9.613677,-1.7172 9.564806,0.44624 -0.04887,2.16345 -9.300455,-2.1326 -9.5752,0.0139 -0.274744,2.14648 9.760622,0.31911 9.263014,2.42512 -0.497609,2.10601 -8.653825,-4.01967 -9.368845,-1.97722 -0.71502,2.04246 9.48098,2.34149 8.556382,4.29802 -0.924598,1.95653 -7.628981,-5.73106 -8.753027,-3.8819 -1.124046,1.84916 8.786975,4.26153 7.475797,5.98307 -1.311179,1.72154 -6.270715,-7.19198 -7.75466,-5.61693 -1.483946,1.57505 7.708937,5.99532 6.068483,7.40663 -1.640454,1.41131 -4.638387,-8.33858 -6.417377,-7.10647 -1.778989,1.2321 6.293981,7.46708 4.395947,8.50648 z"
       transform="matrix(0.67832048,0,0,0.66267423,110.94634,80.776638)" />
    <path
       sodipodi:type="star"
       style="fill:none;fill-opacity:1;stroke:#000000;stroke-width:0.600001;stroke-linecap:butt;stroke-linejoin:round;stroke-dasharray:none;stroke-dashoffset:0;stroke-opacity:1;paint-order:stroke fill markers"
       id="path126"
       inkscape:flatsided="false"
       sodipodi:sides="14"
       sodipodi:cx="28.983934"
       sodipodi:cy="143.44591"
       sodipodi:r1="22.74799"
       sodipodi:r2="15.93258"
       sodipodi:arg1="2.0054665"
       sodipodi:arg2="0.21388751"
       inkscape:rounded="0.14766755"
       inkscape:randomized="2.7755576e-17"
       d="m 19.4045,164.07854 c 0.04826,4.50314 28.708782,-14.49247 25.148961,-17.25078 -4.07914,-3.1607 -30.963417,6.37808 -33.152462,11.05114 -1.9103561,4.07813 32.153763,-0.60098 30.143262,-4.63068 -2.303801,-4.61757 -30.66442,-7.68807 -34.664247,-4.42758 -3.4906055,2.84539 29.230298,13.40953 29.16732,8.90657 -0.07217,-5.15987 -24.291958,-20.23151 -29.3103523,-19.02937 -4.3794977,1.0491 20.5174133,24.76412 22.4144323,20.67977 2.173763,-4.68019 -13.108176,-28.76785 -18.151183,-29.86215 -4.4009765,-0.95499 7.740803,31.21387 11.222092,28.35708 3.989151,-3.27355 0.67184,-31.60636 -3.396949,-34.78037 -3.550789,-2.76993 -6.568968,31.48133 -2.192922,30.41793 5.014438,-1.21853 14.318791,-28.18484 12.030092,-32.80991 -1.997323,-4.03625 -19.5776747,25.51353 -15.173601,26.45413 5.046556,1.07783 25.12973,-19.18097 25.074426,-24.34104 -0.04826,-4.50314 -28.7087821,14.49246 -25.148961,17.25077 4.07914,3.1607 30.963417,-6.37808 33.152462,-11.05114 1.910356,-4.07813 -32.153764,0.60099 -30.143262,4.63069 2.303801,4.61756 30.66442,7.68807 34.664247,4.42758 3.490605,-2.8454 -29.230298,-13.40953 -29.16732,-8.90657 0.07217,5.15986 24.291958,20.23151 29.310352,19.02936 4.379498,-1.04909 -20.517413,-24.76411 -22.414432,-20.67976 -2.173763,4.68019 13.108176,28.76784 18.151183,29.86215 4.400976,0.95499 -7.740803,-31.21387 -11.222092,-28.35708 -3.989151,3.27354 -0.671841,31.60635 3.396949,34.78037 3.550788,2.76992 6.568968,-31.48134 2.192922,-30.41794 -5.014439,1.21854 -14.318791,28.18485 -12.030092,32.80992 1.997323,4.03625 19.577674,-25.51354 15.1736,-26.45414 -5.046555,-1.07782 -25.129729,19.18097 -25.074425,24.34105 z"
       transform="matrix(0.50191637,0,0,0.50191637,106.73557,-1.6258448)" />
    <path
       style="fill:none;fill-opacity:1;stroke:#000000;stroke-width:0.600001;stroke-linecap:butt;stroke-linejoin:round;stroke-dasharray:none;stroke-dashoffset:0;stroke-opacity:1;paint-order:stroke fill markers"
       d="M 45.440914,188.6412 Z"
       id="path127" />
    <path
       style="fill:none;fill-opacity:1;stroke:#000000;stroke-width:0.659753;stroke-linecap:butt;stroke-linejoin:round;stroke-dasharray:none;stroke-dashoffset:0;stroke-opacity:1;paint-order:stroke fill markers"
       d="m 109.63086,210.17969 -5.01127,-0.16955 -5.700684,7.44937 -2.624959,-0.0888 1.824215,-2.3838 4.295368,0.14534 -4.560545,5.95949 -5.965793,-0.20185 17.786148,-23.24205 -1.43182,-0.0484 -2.05225,2.68178 2.86357,0.0969 -5.47265,7.15139 4.77262,0.16148"
       id="path128" />
  </g>
</svg>
